<?xml version="1.0" standalone="no"?>
<!DOCTYPE svg PUBLIC "-//W3C//DTD SVG 20010904//EN"
 "http://www.w3.org/TR/2001/REC-SVG-20010904/DTD/svg10.dtd">
<svg version="1.0" xmlns="http://www.w3.org/2000/svg"
 width="1618.000000pt" height="960.000000pt" viewBox="0 0 1618.000000 960.000000"
 preserveAspectRatio="xMidYMid meet">

<g transform="translate(0.000000,960.000000) scale(0.100000,-0.100000)"
fill="#000000" stroke="none">
<path d="M10660 9584 c-19 -2 -91 -9 -160 -14 -461 -40 -1000 -168 -1445 -345
-165 -65 -480 -219 -628 -306 -617 -364 -1100 -821 -1481 -1401 -189 -289
-347 -602 -456 -906 l-37 -104 -79 184 c-44 100 -321 742 -615 1425 l-534
1243 -580 0 -580 0 -2029 -4673 c-1116 -2569 -2031 -4675 -2033 -4680 -2 -4
316 -6 707 -5 l711 3 514 1243 c282 683 999 2453 1591 3932 593 1480 1081
2687 1085 2682 6 -6 1525 -3811 1861 -4662 199 -504 366 -880 464 -1047 227
-388 507 -727 829 -1002 718 -616 1633 -1002 2645 -1115 525 -59 1229 -40
1850 50 746 108 1395 306 2048 625 l182 89 0 2210 0 2210 -1572 0 -1572 0 45
-47 c25 -27 263 -270 528 -540 l484 -493 408 0 409 0 -2 -1272 -3 -1273 -75
-37 c-447 -223 -996 -356 -1643 -399 -234 -15 -750 -6 -907 16 -610 85 -1133
283 -1574 597 -482 344 -872 834 -1114 1403 -240 564 -348 1176 -321 1825 35
840 317 1619 815 2245 116 145 380 408 524 519 484 375 1016 594 1655 682 160
21 615 30 800 15 809 -67 1520 -368 2027 -859 l129 -126 39 40 c21 21 221 230
444 463 l406 425 -22 24 c-42 45 -264 226 -380 309 -649 463 -1413 733 -2348
829 -145 15 -915 29 -1010 18z"/>
<path d="M14740 8975 l0 -55 108 0 109 0 6 -187 c4 -104 7 -241 7 -305 l0
-118 60 0 60 0 2 303 3 302 108 3 107 3 0 54 0 55 -285 0 -285 0 0 -55z"/>
<path d="M15400 8670 l0 -360 65 0 65 0 2 276 3 275 101 -273 101 -273 49 -3
49 -3 105 281 105 280 3 -280 2 -280 65 0 65 0 0 360 0 360 -103 0 -103 0 -89
-242 c-48 -134 -90 -247 -93 -252 -7 -13 -14 2 -100 239 -44 121 -84 228 -87
238 -6 15 -21 17 -106 17 l-99 0 0 -360z"/>
<path d="M4427 4180 c4 -30 8 -122 7 -205 -1 -257 -27 -338 -232 -735 -347
-674 -445 -903 -487 -1146 -52 -298 42 -585 272 -834 62 -67 222 -204 230
-196 2 1 -7 38 -18 82 -18 65 -22 107 -22 234 0 254 32 343 274 770 240 424
357 693 395 910 21 122 14 338 -15 455 -64 260 -171 453 -379 684 l-33 36 8
-55z"/>
<path d="M4804 2444 c4 -10 10 -60 13 -109 10 -168 -4 -212 -202 -615 -103
-209 -189 -398 -210 -461 -74 -225 -61 -386 46 -565 36 -60 142 -174 198 -214
l34 -24 -7 25 c-36 128 -29 293 17 409 14 32 79 157 145 277 138 249 180 341
218 472 24 86 26 104 22 225 -6 149 -33 246 -102 369 -54 97 -195 270 -172
211z"/>
</g>
</svg>
